<svg xmlns="http://www.w3.org/2000/svg" viewBox="0 0 512 512" role="img" aria-label="OB Codes icon">
  <defs>
    <linearGradient id="g" x1="0" y1="0" x2="1" y2="1">
      <stop offset="0%" stop-color="#0f766e" />
      <stop offset="100%" stop-color="#0ea5a0" />
    </linearGradient>
  </defs>
  <rect width="512" height="512" rx="104" fill="url(#g)" />
  <rect x="76" y="96" width="170" height="320" fill="#ffffff" opacity="0.96" />
  <rect x="98" y="124" width="16" height="260" fill="#0f172a" />
  <rect x="122" y="124" width="28" height="260" fill="#0f172a" />
  <rect x="158" y="124" width="10" height="260" fill="#0f172a" />
  <rect x="176" y="124" width="22" height="260" fill="#0f172a" />
  <rect x="206" y="124" width="14" height="260" fill="#0f172a" />
  <rect x="266" y="96" width="170" height="320" rx="24" fill="#ffffff" opacity="0.96" />
  <rect x="296" y="126" width="42" height="42" fill="#0f172a" />
  <rect x="348" y="126" width="42" height="42" fill="#0f172a" />
  <rect x="296" y="178" width="42" height="42" fill="#0f172a" />
  <rect x="348" y="178" width="42" height="42" fill="#0f172a" />
  <rect x="316" y="240" width="22" height="22" fill="#0f172a" />
  <rect x="358" y="240" width="22" height="22" fill="#0f172a" />
  <rect x="296" y="282" width="22" height="22" fill="#0f172a" />
  <rect x="380" y="282" width="22" height="22" fill="#0f172a" />
</svg>
