<svg xmlns="http://www.w3.org/2000/svg" viewBox="0 0 192 192" role="img" aria-label="OB Codes icon">
  <defs>
    <linearGradient id="g" x1="0" y1="0" x2="1" y2="1">
      <stop offset="0%" stop-color="#0f766e" />
      <stop offset="100%" stop-color="#0ea5a0" />
    </linearGradient>
  </defs>
  <rect width="192" height="192" rx="38" fill="url(#g)" />
  <rect x="28" y="36" width="64" height="120" fill="#ffffff" opacity="0.95" />
  <rect x="36" y="48" width="6" height="96" fill="#0f172a" />
  <rect x="46" y="48" width="10" height="96" fill="#0f172a" />
  <rect x="60" y="48" width="4" height="96" fill="#0f172a" />
  <rect x="68" y="48" width="8" height="96" fill="#0f172a" />
  <rect x="80" y="48" width="5" height="96" fill="#0f172a" />
  <rect x="100" y="36" width="64" height="120" rx="8" fill="#ffffff" opacity="0.95" />
  <rect x="112" y="48" width="16" height="16" fill="#0f172a" />
  <rect x="132" y="48" width="16" height="16" fill="#0f172a" />
  <rect x="112" y="68" width="16" height="16" fill="#0f172a" />
  <rect x="132" y="68" width="16" height="16" fill="#0f172a" />
  <rect x="120" y="92" width="8" height="8" fill="#0f172a" />
  <rect x="136" y="92" width="8" height="8" fill="#0f172a" />
  <rect x="112" y="108" width="8" height="8" fill="#0f172a" />
  <rect x="144" y="108" width="8" height="8" fill="#0f172a" />
</svg>
